<svg xmlns="http://www.w3.org/2000/svg" viewBox="0 0 1600 900" preserveAspectRatio="xMidYMid slice" width="100%" height="100%" role="img" aria-label="Scene du desert marocain au crepuscule avec caravane">
  <defs>
    <!-- Ciel crepuscule : violet profond -> orange -> dore -->
    <linearGradient id="sky" x1="0" y1="0" x2="0" y2="1">
      <stop offset="0%"  stop-color="#1B1744"/>
      <stop offset="30%" stop-color="#3B2A5A"/>
      <stop offset="55%" stop-color="#8B3A3A"/>
      <stop offset="78%" stop-color="#D66B2F"/>
      <stop offset="100%" stop-color="#F4B860"/>
    </linearGradient>
    <!-- Halo soleil -->
    <radialGradient id="sunglow" cx="50%" cy="50%" r="50%">
      <stop offset="0%"  stop-color="#FFE5A0" stop-opacity="1"/>
      <stop offset="30%" stop-color="#F5A02E" stop-opacity=".7"/>
      <stop offset="60%" stop-color="#D66B2F" stop-opacity=".25"/>
      <stop offset="100%" stop-color="#8B3A3A" stop-opacity="0"/>
    </radialGradient>
    <!-- Dunes : de l'arriere (clair chaud) au premier plan (noir aubergine) -->
    <linearGradient id="dune-far" x1="0" y1="0" x2="0" y2="1">
      <stop offset="0%" stop-color="#A34C2E"/>
      <stop offset="100%" stop-color="#6C2E22"/>
    </linearGradient>
    <linearGradient id="dune-mid" x1="0" y1="0" x2="0" y2="1">
      <stop offset="0%" stop-color="#5A2418"/>
      <stop offset="100%" stop-color="#341B15"/>
    </linearGradient>
    <linearGradient id="dune-near" x1="0" y1="0" x2="0" y2="1">
      <stop offset="0%" stop-color="#231411"/>
      <stop offset="100%" stop-color="#0E0A09"/>
    </linearGradient>
    <!-- Grain subtil -->
    <filter id="grain">
      <feTurbulence type="fractalNoise" baseFrequency="1.2" numOctaves="2" seed="3"/>
      <feColorMatrix values="0 0 0 0 1  0 0 0 0 1  0 0 0 0 1  0 0 0 .06 0"/>
      <feComposite in2="SourceGraphic" operator="in"/>
    </filter>
  </defs>

  <!-- Ciel -->
  <rect width="1600" height="900" fill="url(#sky)"/>

  <!-- Etoiles scintillantes -->
  <g fill="#FFF7E8">
    <circle cx="120" cy="80"  r="1.2"><animate attributeName="opacity" values=".2;1;.2" dur="3.2s" repeatCount="indefinite" begin="0s"/></circle>
    <circle cx="280" cy="140" r="1.5"><animate attributeName="opacity" values=".3;1;.3" dur="4.1s" repeatCount="indefinite" begin=".4s"/></circle>
    <circle cx="440" cy="60"  r="1"  ><animate attributeName="opacity" values=".1;.9;.1" dur="3.6s" repeatCount="indefinite" begin=".8s"/></circle>
    <circle cx="620" cy="180" r="1.3"><animate attributeName="opacity" values=".2;1;.2" dur="4.4s" repeatCount="indefinite" begin="1.2s"/></circle>
    <circle cx="780" cy="90"  r="1.6"><animate attributeName="opacity" values=".3;1;.3" dur="3.8s" repeatCount="indefinite" begin=".2s"/></circle>
    <circle cx="1020" cy="160" r="1"  ><animate attributeName="opacity" values=".1;.8;.1" dur="4.6s" repeatCount="indefinite" begin="1.4s"/></circle>
    <circle cx="1220" cy="100" r="1.4"><animate attributeName="opacity" values=".2;1;.2" dur="3.4s" repeatCount="indefinite" begin=".7s"/></circle>
    <circle cx="1380" cy="200" r="1.1"><animate attributeName="opacity" values=".3;.9;.3" dur="4.9s" repeatCount="indefinite" begin="1.6s"/></circle>
    <circle cx="1500" cy="70"  r="1.5"><animate attributeName="opacity" values=".2;1;.2" dur="3.7s" repeatCount="indefinite" begin="2s"/></circle>
  </g>

  <!-- Halo solaire -->
  <circle cx="1150" cy="440" r="480" fill="url(#sunglow)">
    <animate attributeName="r" values="460;500;460" dur="8s" repeatCount="indefinite"/>
  </circle>
  <!-- Disque solaire -->
  <circle cx="1150" cy="440" r="110" fill="#FFD88A">
    <animate attributeName="opacity" values=".92;1;.92" dur="6s" repeatCount="indefinite"/>
  </circle>
  <circle cx="1150" cy="440" r="110" fill="none" stroke="#FFE5A0" stroke-width=".5" opacity=".7"/>

  <!-- Vol d'oiseaux loin -->
  <g fill="none" stroke="#1C1412" stroke-width="2" stroke-linecap="round" opacity=".55">
    <path d="M 300,280 q 8,-8 16,0 q 8,-8 16,0">
      <animateTransform attributeName="transform" type="translate" values="0,0; 60,-20; 120,-10" dur="14s" repeatCount="indefinite"/>
    </path>
    <path d="M 360,310 q 6,-6 12,0 q 6,-6 12,0">
      <animateTransform attributeName="transform" type="translate" values="0,0; 55,-15; 110,-5" dur="15s" repeatCount="indefinite" begin="1s"/>
    </path>
  </g>

  <!-- Dune lointaine -->
  <path d="M 0,560
           C 220,510 430,600 660,540
           C 900,480 1100,580 1320,520
           C 1450,490 1550,530 1600,520
           L 1600,900 L 0,900 Z"
        fill="url(#dune-far)"/>

  <!-- Palmier 1 -->
  <g transform="translate(220 540)" opacity=".9">
    <rect x="-4" y="0" width="8" height="140" fill="#1C1412" rx="1"/>
    <g fill="#1C1412" stroke="#1C1412" stroke-width="1">
      <path d="M 0,5 q -40,-20 -70,-10 q 30,-5 50,10 Z"/>
      <path d="M 0,5 q 40,-20 70,-10 q -30,-5 -50,10 Z"/>
      <path d="M 0,0 q -30,-40 -55,-45 q 20,15 35,45 Z"/>
      <path d="M 0,0 q 30,-40 55,-45 q -20,15 -35,45 Z"/>
      <path d="M 0,2 q -5,-40 -10,-55 q 8,20 15,55 Z"/>
      <path d="M 0,2 q 5,-40 10,-55 q -8,20 -15,55 Z"/>
    </g>
    <animateTransform attributeName="transform" type="translate"
                     values="220,540; 222,541; 218,539; 220,540"
                     dur="6s" repeatCount="indefinite" additive="replace"/>
  </g>

  <!-- Tente berbere au loin -->
  <g transform="translate(860 600)" opacity=".75">
    <path d="M -35,0 L 0,-50 L 35,0 Z" fill="#1C1412"/>
    <path d="M -22,0 L 0,-32 L 22,0 Z" fill="#2E221C"/>
    <path d="M -5,-15 L 0,-22 L 5,-15 L 5,0 L -5,0 Z" fill="#C84B31"/>
  </g>

  <!-- Dune milieu -->
  <path d="M 0,680
           C 200,640 400,720 620,670
           C 840,620 1040,720 1260,660
           C 1420,620 1540,660 1600,650
           L 1600,900 L 0,900 Z"
        fill="url(#dune-mid)"/>

  <!-- Palmier 2 -->
  <g transform="translate(1380 650)" opacity=".92">
    <rect x="-4" y="0" width="8" height="130" fill="#0E0A09" rx="1"/>
    <g fill="#0E0A09">
      <path d="M 0,5 q -35,-18 -60,-8 q 25,-3 45,8 Z"/>
      <path d="M 0,5 q 35,-18 60,-8 q -25,-3 -45,8 Z"/>
      <path d="M 0,0 q -28,-36 -50,-40 q 18,12 32,40 Z"/>
      <path d="M 0,0 q 28,-36 50,-40 q -18,12 -32,40 Z"/>
      <path d="M 0,2 q -5,-36 -9,-50 q 7,18 13,50 Z"/>
    </g>
  </g>

  <!-- Caravane de dromadaires qui traversent -->
  <g>
    <g fill="#0E0A09" opacity=".92">
      <!-- Dromadaire 1 -->
      <g transform="translate(0 720)">
        <path d="M 0,0 q 10,-30 25,-30 q 8,-15 18,-12 q 5,-4 10,0 q 3,2 2,10 q 15,-4 30,0 q 10,-15 20,-10 q 5,-3 8,2 q 2,5 -2,10 q 5,2 8,8 q 2,15 -3,22 q -5,5 -10,3 l 0,28 l -6,0 l 0,-25 q -18,4 -40,0 l 0,25 l -6,0 l 0,-28 q -12,-5 -20,-10 q -15,5 -25,-2 q -10,-5 -9,-21 z"
              transform="scale(.7)"/>
      </g>
      <!-- Dromadaire 2 -->
      <g transform="translate(90 724)">
        <path d="M 0,0 q 10,-30 25,-30 q 8,-15 18,-12 q 5,-4 10,0 q 3,2 2,10 q 15,-4 30,0 q 10,-15 20,-10 q 5,-3 8,2 q 2,5 -2,10 q 5,2 8,8 q 2,15 -3,22 q -5,5 -10,3 l 0,28 l -6,0 l 0,-25 q -18,4 -40,0 l 0,25 l -6,0 l 0,-28 q -12,-5 -20,-10 q -15,5 -25,-2 q -10,-5 -9,-21 z"
              transform="scale(.65)"/>
      </g>
      <!-- Dromadaire 3 + personne -->
      <g transform="translate(175 727)">
        <path d="M 0,0 q 10,-30 25,-30 q 8,-15 18,-12 q 5,-4 10,0 q 3,2 2,10 q 15,-4 30,0 q 10,-15 20,-10 q 5,-3 8,2 q 2,5 -2,10 q 5,2 8,8 q 2,15 -3,22 q -5,5 -10,3 l 0,28 l -6,0 l 0,-25 q -18,4 -40,0 l 0,25 l -6,0 l 0,-28 q -12,-5 -20,-10 q -15,5 -25,-2 q -10,-5 -9,-21 z"
              transform="scale(.6)"/>
        <!-- personne assise -->
        <g transform="scale(.6)">
          <circle cx="48" cy="-40" r="6"/>
          <path d="M 44,-34 l -4,14 l 4,2 l 4,-2 l 4,-14 z"/>
        </g>
      </g>
    </g>
    <animateTransform attributeName="transform" type="translate"
                      values="1700 0; -300 0" dur="70s" repeatCount="indefinite"/>
  </g>

  <!-- Dune premier plan (silhouette sombre) -->
  <path d="M 0,780
           C 300,740 600,800 900,770
           C 1200,740 1400,800 1600,780
           L 1600,900 L 0,900 Z"
        fill="url(#dune-near)"/>

  <!-- Grain textureux sur le tout (discret) -->
  <rect width="1600" height="900" filter="url(#grain)" opacity=".3"/>
</svg>
