<svg xmlns="http://www.w3.org/2000/svg" viewBox="0 0 400 40" width="400" height="40" role="img" aria-label="Separateur arabesque">
  <g fill="none" stroke="currentColor" stroke-width="1.3" stroke-linecap="round" stroke-linejoin="round">
    <!-- Ligne centrale -->
    <path d="M 0,20 L 140,20"/>
    <path d="M 260,20 L 400,20"/>
    <!-- Ornement central : etoile + arabesques -->
    <g transform="translate(200 20)">
      <path d="M 0,-12 L 4,-4 L 12,0 L 4,4 L 0,12 L -4,4 L -12,0 L -4,-4 Z"/>
      <circle cx="0" cy="0" r="3" fill="currentColor"/>
      <path d="M -30,0 C -26,-6 -22,-6 -18,0 C -14,-6 -10,-6 -6,0" transform="translate(-14 0)"/>
      <path d="M 30,0 C 26,-6 22,-6 18,0 C 14,-6 10,-6 6,0" transform="translate(14 0) scale(-1 1)"/>
    </g>
    <!-- Points -->
    <circle cx="148" cy="20" r="1.5" fill="currentColor"/>
    <circle cx="156" cy="20" r="1.5" fill="currentColor"/>
    <circle cx="252" cy="20" r="1.5" fill="currentColor"/>
    <circle cx="244" cy="20" r="1.5" fill="currentColor"/>
  </g>
</svg>
