<?xml version="1.0" encoding="UTF-8"?>
<svg xmlns="http://www.w3.org/2000/svg" viewBox="0 0 80 80" width="80" height="80">
  <defs>
    <pattern id="zel" width="80" height="80" patternUnits="userSpaceOnUse">
      <rect width="80" height="80" fill="transparent"/>
      <g fill="none" stroke="#B5553E" stroke-width="1.2" opacity=".35">
        <!-- étoile à 8 branches -->
        <path d="M40 10 L48 28 L66 20 L58 38 L76 40 L58 42 L66 60 L48 52 L40 70 L32 52 L14 60 L22 42 L4 40 L22 38 L14 20 L32 28 Z"/>
        <circle cx="40" cy="40" r="10"/>
        <circle cx="40" cy="40" r="4"/>
        <!-- petits losanges aux coins -->
        <path d="M0 0 L6 6 L0 12 L-6 6 Z" transform="translate(0 0)"/>
        <path d="M0 0 L6 6 L0 12 L-6 6 Z" transform="translate(80 0)"/>
        <path d="M0 0 L6 6 L0 12 L-6 6 Z" transform="translate(0 80)"/>
        <path d="M0 0 L6 6 L0 12 L-6 6 Z" transform="translate(80 80)"/>
      </g>
    </pattern>
  </defs>
  <rect width="80" height="80" fill="url(#zel)"/>
</svg>
