<svg xmlns="http://www.w3.org/2000/svg" viewBox="0 0 160 160" width="160" height="160" role="img" aria-label="Note 4.6 sur 5 etoiles">
  <defs>
    <path id="rating-circle" d="M 80,80 m -58,0 a 58,58 0 1,1 116,0 a 58,58 0 1,1 -116,0"/>
    <path id="rating-circle-bottom" d="M 80,80 m 58,0 a 58,58 0 1,0 -116,0"/>
  </defs>
  <path d="M 80,14
           Q 102,12 118,22 Q 138,30 144,48 Q 150,64 146,80
           Q 150,100 138,114 Q 126,132 106,140 Q 90,146 78,146
           Q 58,150 42,138 Q 22,128 16,108 Q 10,90 14,74
           Q 10,56 24,42 Q 36,24 54,16 Q 68,10 80,14 Z"
        fill="none" stroke="#2B3F8E" stroke-width="2.5" opacity=".9"/>
  <circle cx="80" cy="80" r="52" fill="none" stroke="#2B3F8E" stroke-width="1.2" opacity=".6"/>

  <text font-family="'Fraunces', serif" font-weight="600" font-size="12" fill="#2B3F8E" letter-spacing="3">
    <textPath href="#rating-circle" startOffset="3%">NOTE MOYENNE &#9671; AVIS CLIENTS VERIFIES</textPath>
  </text>
  <text font-family="'Fraunces', serif" font-weight="400" font-style="italic" font-size="10" fill="#2B3F8E" letter-spacing="2">
    <textPath href="#rating-circle-bottom" startOffset="25%">+ DE 80 RETOURS UBER EATS</textPath>
  </text>

  <g transform="translate(80 80)">
    <!-- 5 etoilles alignees -->
    <g transform="translate(-30 -8)" fill="#2B3F8E">
      <path d="M 0,0 L 2,4 L 6,4 L 3,7 L 4,11 L 0,9 L -4,11 L -3,7 L -6,4 L -2,4 Z"/>
      <path d="M 15,0 L 17,4 L 21,4 L 18,7 L 19,11 L 15,9 L 11,11 L 12,7 L 9,4 L 13,4 Z"/>
      <path d="M 30,0 L 32,4 L 36,4 L 33,7 L 34,11 L 30,9 L 26,11 L 27,7 L 24,4 L 28,4 Z"/>
      <path d="M 45,0 L 47,4 L 51,4 L 48,7 L 49,11 L 45,9 L 41,11 L 42,7 L 39,4 L 43,4 Z"/>
      <path d="M 60,0 L 62,4 L 66,4 L 63,7 L 64,11 L 60,9 L 56,11 L 57,7 L 54,4 L 58,4 Z" opacity=".35"/>
    </g>
    <!-- Chiffre -->
    <text text-anchor="middle" y="24" font-family="'Fraunces', serif" font-weight="700" font-size="28" fill="#2B3F8E">&#1636;,&#1638; <tspan font-size="14" fill="#2B3F8E" opacity=".6">/&#1637;</tspan></text>
  </g>
</svg>
